<svg version="1.1" viewBox="0.0 0.0 300.254593175853 299.1469816272966" fill="none" stroke="none" stroke-linecap="square" stroke-miterlimit="10" xmlns:xlink="http://www.w3.org/1999/xlink" xmlns="http://www.w3.org/2000/svg"><clipPath id="p.0"><path d="m0 0l300.2546 0l0 299.14697l-300.2546 0l0 -299.14697z" clip-rule="nonzero"/></clipPath><g clip-path="url(#p.0)"><path fill="#000000" fill-opacity="0.0" d="m0 0l300.2546 0l0 299.14697l-300.2546 0z" fill-rule="evenodd"/><path fill="#073763" d="m125.88782 26.424702l0 0c13.655182 -13.655188 35.794617 -13.655188 49.449814 0l98.89665 98.89665l0 0c6.557434 6.5574493 10.241394 15.451263 10.241394 24.7249c0 9.273636 -3.68396 18.16745 -10.241394 24.724915l-98.89665 98.89665c-13.655197 13.655182 -35.794632 13.655182 -49.449814 0l-98.89665 -98.89665c-13.655188 -13.655197 -13.655188 -35.794632 0 -49.449814z" fill-rule="evenodd"/><path stroke="#1c4587" stroke-width="4.0" stroke-linejoin="round" stroke-linecap="butt" d="m125.88782 26.424702l0 0c13.655182 -13.655188 35.794617 -13.655188 49.449814 0l98.89665 98.89665l0 0c6.557434 6.5574493 10.241394 15.451263 10.241394 24.7249c0 9.273636 -3.68396 18.16745 -10.241394 24.724915l-98.89665 98.89665c-13.655197 13.655182 -35.794632 13.655182 -49.449814 0l-98.89665 -98.89665c-13.655188 -13.655197 -13.655188 -35.794632 0 -49.449814z" fill-rule="evenodd"/><path fill="#000000" fill-opacity="0.0" d="m42.896187 62.024475l215.43307 0l0 128.22047l-215.43307 0z" fill-rule="evenodd"/><path fill="#ffffff" d="m95.84156 96.964714q8.296875 0 12.3125 4.109375q4.03125 4.109375 4.03125 12.484375l0 19.843742q0 2.203125 -1.3125 3.46875q-1.296875 1.25 -3.5625 1.25q-2.125 0 -3.46875 -1.296875q-1.328125 -1.3125 -1.328125 -3.421875l0 -1.78125q-1.390625 3.171875 -4.359375 4.96875q-2.96875 1.78125 -6.875 1.78125q-3.984375 0 -7.234375 -1.625q-3.25 -1.640625 -5.125 -4.484375q-1.875 -2.84375 -1.875 -6.3437424q0 -4.390625 2.234375 -6.90625q2.25 -2.53125 7.28125 -3.65625q5.046875 -1.140625 13.90625 -1.140625l2.046875 0l0 -1.875q0 -3.984375 -1.71875 -5.8125q-1.703125 -1.828125 -5.53125 -1.828125q-2.359375 0 -4.796875 0.6875q-2.4375 0.6875 -5.765625 2.0q-2.125 1.046875 -3.09375 1.046875q-1.46875 0 -2.40625 -1.046875q-0.921875 -1.0625 -0.921875 -2.765625q0 -1.390625 0.6875 -2.40625q0.6875 -1.015625 2.3125 -1.90625q2.84375 -1.546875 6.78125 -2.4375q3.953125 -0.90625 7.78125 -0.90625zm-2.53125 34.078117q4.078125 0 6.640625 -2.71875q2.5625 -2.7343674 2.5625 -7.0312424l0 -1.71875l-1.46875 0q-5.453125 0 -8.46875 0.5q-3.0 0.484375 -4.3125 1.703125q-1.296875 1.21875 -1.296875 3.328125q0 2.609375 1.828125 4.2812424q1.84375 1.65625 4.515625 1.65625zm46.8547 7.328125q-5.9375 0 -10.453125 -2.515625q-4.5156174 -2.53125 -6.9531174 -7.15625q-2.4375 -4.6406174 -2.4375 -10.828117q0 -6.1875 2.5625 -10.9375q2.5625 -4.765625 7.1874924 -7.359375q4.640625 -2.609375 10.65625 -2.609375q3.171875 0 6.375 0.90625q3.21875 0.890625 5.671875 2.4375q2.59375 1.703125 2.59375 4.3125q0 1.78125 -0.859375 2.890625q-0.84375 1.09375 -2.234375 1.09375q-0.890625 0 -1.875 -0.40625q-0.96875 -0.40625 -1.9375 -0.984375q-1.796875 -1.0625 -3.421875 -1.671875q-1.625 -0.609375 -3.734375 -0.609375q-5.046875 0 -7.78125 3.296875q-2.71875 3.296875 -2.71875 9.484375q0 6.09375 2.71875 9.390625q2.734375 3.2968674 7.78125 3.2968674q2.03125 0 3.609375 -0.609375q1.59375 -0.625 3.546875 -1.671875q1.21875 -0.7343674 2.109375 -1.0937424q0.890625 -0.375 1.796875 -0.375q1.296875 0 2.1875 1.140625q0.890625 1.1406174 0.890625 2.8437424q0 1.390625 -0.609375 2.40625q-0.609375 1.015625 -1.984375 1.828125q-2.53125 1.625 -5.859375 2.5625q-3.328125 0.9375 -6.828125 0.9375zm69.28189 -41.406242q6.515625 0 9.96875 3.875q3.453125 3.859375 3.453125 12.46875l0 20.015617q0 2.359375 -1.421875 3.625q-1.421875 1.25 -3.703125 1.25q-2.1875 0 -3.609375 -1.25q-1.421875 -1.265625 -1.421875 -3.625l0 -20.015617q0 -4.46875 -1.59375 -6.375q-1.578125 -1.90625 -4.84375 -1.90625q-3.984375 0 -6.34375 2.71875q-2.34375 2.71875 -2.34375 7.4375l0 18.140617q0 2.359375 -1.4375 3.625q-1.421875 1.25 -3.609375 1.25q-2.203125 0 -3.671875 -1.25q-1.453125 -1.265625 -1.453125 -3.625l0 -20.015617q0 -4.46875 -1.59375 -6.375q-1.578125 -1.90625 -4.828125 -1.90625q-3.984375 0 -6.3125 2.71875q-2.3125 2.71875 -2.3125 7.4375l0 18.140617q0 2.359375 -1.46875 3.625q-1.453125 1.25 -3.65625 1.25q-2.1875 0 -3.625 -1.25q-1.421875 -1.265625 -1.421875 -3.625l0 -31.468742q0 -2.28125 1.46875 -3.5q1.46875 -1.21875 3.65625 -1.21875q2.125 0 3.453125 1.1875q1.34375 1.171875 1.34375 3.359375l0 1.953125q1.875 -3.25 5.0 -4.953125q3.140625 -1.71875 7.203125 -1.71875q8.953125 0 11.953125 7.484375q1.796875 -3.40625 5.28125 -5.4375q3.5 -2.046875 7.890625 -2.046875z" fill-rule="nonzero"/><path fill="#93c47d" d="m60.63182 185.79471q-0.84375 0 -1.3125 -0.46875q-0.46875 -0.46875 -0.46875 -1.296875l0 -17.1875q0 -0.84375 0.5 -1.359375q0.515625 -0.515625 1.375 -0.515625q0.875 0 1.390625 0.515625q0.515625 0.515625 0.515625 1.359375l0 15.84375l8.234375 0q1.765625 0 1.765625 1.5625q0 1.546875 -1.765625 1.546875l-10.234375 0zm25.202515 -14.640625q0.84375 0 1.34375 0.46875q0.5 0.46875 0.5 1.265625l0 11.375q0 0.765625 -0.515625 1.234375q-0.515625 0.46875 -1.328125 0.46875q-0.796875 0 -1.265625 -0.4375q-0.46875 -0.4375 -0.46875 -1.203125l0 -0.734375q-0.671875 1.171875 -1.828125 1.8125q-1.140625 0.625 -2.578125 0.625q-5.28125 0 -5.28125 -5.921875l0 -7.21875q0 -0.796875 0.5 -1.265625q0.5 -0.46875 1.328125 -0.46875q0.84375 0 1.34375 0.46875q0.5 0.46875 0.5 1.265625l0 7.25q0 1.515625 0.609375 2.25q0.625 0.734375 1.9375 0.734375q1.53125 0 2.453125 -1.0q0.921875 -1.015625 0.921875 -2.6875l0 -6.546875q0 -0.796875 0.5 -1.265625q0.5 -0.46875 1.328125 -0.46875zm13.105972 12.09375q1.46875 0.078125 1.46875 1.3125q0 0.703125 -0.578125 1.078125q-0.578125 0.359375 -1.625 0.296875l-0.796875 -0.046875q-4.921875 -0.359375 -4.921875 -5.28125l0 -6.390625l-1.46875 0q-0.796875 0 -1.21875 -0.34375q-0.421875 -0.359375 -0.421875 -1.046875q0 -0.671875 0.421875 -1.015625q0.421875 -0.359375 1.21875 -0.359375l1.46875 0l0 -2.703125q0 -0.78125 0.5 -1.25q0.5 -0.46875 1.34375 -0.46875q0.828125 0 1.3125 0.46875q0.5 0.46875 0.5 1.25l0 2.703125l2.5 0q0.796875 0 1.21875 0.359375q0.421875 0.34375 0.421875 1.015625q0 0.6875 -0.421875 1.046875q-0.421875 0.34375 -1.21875 0.34375l-2.5 0l0 6.65625q0 2.171875 2.0 2.3125l0.796875 0.0625zm11.759567 -12.140625q5.046875 0 5.046875 5.890625l0 7.21875q0 0.8125 -0.484375 1.28125q-0.484375 0.46875 -1.34375 0.46875q-0.84375 0 -1.34375 -0.46875q-0.5 -0.46875 -0.5 -1.28125l0 -7.21875q0 -1.5625 -0.640625 -2.28125q-0.625 -0.71875 -1.96875 -0.71875q-1.578125 0 -2.53125 1.0q-0.953125 1.0 -0.953125 2.671875l0 6.546875q0 0.8125 -0.5 1.28125q-0.5 0.46875 -1.359375 0.46875q-0.84375 0 -1.328125 -0.46875q-0.484375 -0.46875 -0.484375 -1.28125l0 -17.546875q0 -0.765625 0.515625 -1.234375q0.515625 -0.46875 1.328125 -0.46875q0.828125 0 1.328125 0.453125q0.5 0.4375 0.5 1.1875l0 6.84375q0.734375 -1.140625 1.9375 -1.734375q1.21875 -0.609375 2.78125 -0.609375zm20.110062 10.75q0.5 0 0.8125 0.390625q0.3125 0.375 0.3125 1.03125q0 0.90625 -1.09375 1.515625q-1.0 0.5625 -2.265625 0.90625q-1.25 0.328125 -2.390625 0.328125q-3.46875 0 -5.5 -1.984375q-2.015625 -2.0 -2.015625 -5.46875q0 -2.203125 0.875 -3.890625q0.890625 -1.703125 2.484375 -2.640625q1.609375 -0.9375 3.625 -0.9375q1.9375 0 3.375 0.84375q1.4375 0.84375 2.21875 2.40625q0.796875 1.546875 0.796875 3.671875q0 1.25 -1.109375 1.25l-8.65625 0q0.171875 2.03125 1.140625 2.984375q0.96875 0.953125 2.828125 0.953125q0.9375 0 1.65625 -0.234375q0.71875 -0.234375 1.625 -0.640625q0.875 -0.484375 1.28125 -0.484375zm-5.0625 -8.171875q-1.5 0 -2.40625 0.9375q-0.890625 0.9375 -1.0625 2.703125l6.625 0q-0.046875 -1.796875 -0.875 -2.71875q-0.8125 -0.921875 -2.28125 -0.921875zm17.291977 -2.53125q0.765625 -0.046875 1.203125 0.328125q0.453125 0.375 0.453125 1.140625q0 0.796875 -0.390625 1.1875q-0.375 0.375 -1.375 0.484375l-0.875 0.09375q-1.734375 0.171875 -2.546875 1.171875q-0.796875 1.0 -0.796875 2.484375l0 6.171875q0 0.84375 -0.53125 1.296875q-0.53125 0.453125 -1.328125 0.453125q-0.78125 0 -1.296875 -0.453125q-0.515625 -0.453125 -0.515625 -1.296875l0 -11.359375q0 -0.8125 0.515625 -1.25q0.515625 -0.453125 1.28125 -0.453125q0.75 0 1.21875 0.4375q0.46875 0.421875 0.46875 1.203125l0 1.1875q0.5625 -1.296875 1.65625 -2.0q1.109375 -0.703125 2.453125 -0.796875l0.40625 -0.03125zm12.795166 14.90625q-3.0 0 -5.25 -1.28125q-2.234375 -1.296875 -3.4375 -3.703125q-1.203125 -2.40625 -1.203125 -5.640625q0 -3.21875 1.203125 -5.609375q1.203125 -2.390625 3.4375 -3.671875q2.25 -1.296875 5.25 -1.296875q1.9375 0 3.640625 0.578125q1.703125 0.5625 3.015625 1.640625q0.375 0.296875 0.515625 0.625q0.15625 0.328125 0.15625 0.796875q0 0.640625 -0.359375 1.078125q-0.34375 0.4375 -0.84375 0.4375q-0.578125 0 -1.203125 -0.40625q-1.25 -0.9375 -2.34375 -1.296875q-1.078125 -0.375 -2.40625 -0.375q-3.046875 0 -4.625 1.90625q-1.5625 1.90625 -1.5625 5.59375q0 3.734375 1.5625 5.640625q1.578125 1.90625 4.625 1.90625q1.265625 0 2.328125 -0.375q1.078125 -0.390625 2.421875 -1.296875q0.296875 -0.171875 0.59375 -0.28125q0.296875 -0.125 0.609375 -0.125q0.5 0 0.84375 0.4375q0.359375 0.4375 0.359375 1.078125q0 0.4375 -0.15625 0.78125q-0.140625 0.328125 -0.515625 0.625q-1.3125 1.09375 -3.015625 1.671875q-1.703125 0.5625 -3.640625 0.5625zm16.575485 -0.03125q-2.2031097 0 -3.8593597 -0.90625q-1.65625 -0.90625 -2.578125 -2.609375q-0.90625 -1.703125 -0.90625 -3.96875q0 -2.25 0.90625 -3.9375q0.921875 -1.6875 2.578125 -2.59375q1.65625 -0.90625 3.8593597 -0.90625q2.1875 0 3.84375 0.90625q1.65625 0.90625 2.546875 2.59375q0.90625 1.6875 0.90625 3.9375q0 2.265625 -0.90625 3.96875q-0.890625 1.703125 -2.546875 2.609375q-1.65625 0.90625 -3.84375 0.90625zm-0.03125 -2.84375q1.78125 0 2.71875 -1.171875q0.9375 -1.171875 0.9375 -3.46875q0 -2.25 -0.9375 -3.4375q-0.9375 -1.1875 -2.6875 -1.1875q-1.7656097 0 -2.7187347 1.1875q-0.953125 1.1875 -0.953125 3.4375q0 2.296875 0.9375 3.46875q0.9375 1.171875 2.7031097 1.171875zm12.160553 2.78125q-0.78125 0 -1.296875 -0.453125q-0.515625 -0.453125 -0.515625 -1.296875l0 -17.515625q0 -0.84375 0.515625 -1.28125q0.515625 -0.453125 1.296875 -0.453125q0.796875 0 1.328125 0.453125q0.53125 0.4375 0.53125 1.28125l0 17.515625q0 0.84375 -0.53125 1.296875q-0.53125 0.453125 -1.328125 0.453125zm7.449341 0q-0.78125 0 -1.296875 -0.453125q-0.515625 -0.453125 -0.515625 -1.296875l0 -17.515625q0 -0.84375 0.515625 -1.28125q0.515625 -0.453125 1.296875 -0.453125q0.796875 0 1.328125 0.453125q0.53125 0.4375 0.53125 1.28125l0 17.515625q0 0.84375 -0.53125 1.296875q-0.53125 0.453125 -1.328125 0.453125zm16.98059 -4.109375q0.5 0 0.8125 0.390625q0.3125 0.375 0.3125 1.03125q0 0.90625 -1.09375 1.515625q-1.0 0.5625 -2.265625 0.90625q-1.25 0.328125 -2.390625 0.328125q-3.46875 0 -5.5 -1.984375q-2.015625 -2.0 -2.015625 -5.46875q0 -2.203125 0.875 -3.890625q0.890625 -1.703125 2.484375 -2.640625q1.609375 -0.9375 3.625 -0.9375q1.9375 0 3.375 0.84375q1.4375 0.84375 2.21875 2.40625q0.796875 1.546875 0.796875 3.671875q0 1.25 -1.109375 1.25l-8.65625 0q0.171875 2.03125 1.140625 2.984375q0.96875 0.953125 2.828125 0.953125q0.9375 0 1.65625 -0.234375q0.71875 -0.234375 1.625 -0.640625q0.875 -0.484375 1.28125 -0.484375zm-5.0625 -8.171875q-1.5 0 -2.40625 0.9375q-0.890625 0.9375 -1.0625 2.703125l6.625 0q-0.046875 -1.796875 -0.875 -2.71875q-0.8125 -0.921875 -2.28125 -0.921875zm21.432587 -2.53125q0.828125 0 1.3125 0.46875q0.5 0.46875 0.5 1.265625l0 11.59375q0 3.359375 -1.875 5.09375q-1.875 1.734375 -5.53125 1.734375q-3.203125 0 -5.34375 -1.203125q-1.078125 -0.640625 -1.078125 -1.5625q0 -0.640625 0.296875 -1.03125q0.3125 -0.375 0.8125 -0.375q0.265625 0 0.640625 0.125q0.390625 0.140625 0.796875 0.3125q1.046875 0.453125 1.875 0.6875q0.84375 0.234375 1.9375 0.234375q3.84375 0 3.84375 -3.765625l0 -1.875q-0.65625 1.203125 -1.890625 1.875q-1.21875 0.65625 -2.8125 0.65625q-1.875 0 -3.328125 -0.890625q-1.453125 -0.90625 -2.28125 -2.515625q-0.8125 -1.609375 -0.8125 -3.71875q0 -2.125 0.8125 -3.75q0.8125 -1.625 2.265625 -2.515625q1.46875 -0.890625 3.34375 -0.890625q1.59375 0 2.8125 0.65625q1.234375 0.65625 1.890625 1.859375l0 -0.765625q0 -0.765625 0.5 -1.234375q0.5 -0.46875 1.3125 -0.46875zm-5.546875 11.390625q1.765625 0 2.75 -1.140625q0.984375 -1.15625 0.984375 -3.140625q0 -2.03125 -0.984375 -3.171875q-0.984375 -1.140625 -2.75 -1.140625q-1.71875 0 -2.71875 1.140625q-1.0 1.140625 -1.0 3.171875q0 1.984375 1.0 3.140625q1.0 1.140625 2.71875 1.140625zm22.4935 -0.6875q0.5 0 0.8125 0.390625q0.3125 0.375 0.3125 1.03125q0 0.90625 -1.09375 1.515625q-1.0 0.5625 -2.265625 0.90625q-1.25 0.328125 -2.390625 0.328125q-3.46875 0 -5.5 -1.984375q-2.015625 -2.0 -2.015625 -5.46875q0 -2.203125 0.875 -3.890625q0.890625 -1.703125 2.484375 -2.640625q1.609375 -0.9375 3.625 -0.9375q1.9375 0 3.375 0.84375q1.4375 0.84375 2.21875 2.40625q0.796875 1.546875 0.796875 3.671875q0 1.25 -1.109375 1.25l-8.65625 0q0.171875 2.03125 1.140625 2.984375q0.96875 0.953125 2.828125 0.953125q0.9375 0 1.65625 -0.234375q0.71875 -0.234375 1.625 -0.640625q0.875 -0.484375 1.28125 -0.484375zm-5.0625 -8.171875q-1.5 0 -2.40625 0.9375q-0.890625 0.9375 -1.0625 2.703125l6.625 0q-0.046875 -1.796875 -0.875 -2.71875q-0.8125 -0.921875 -2.28125 -0.921875z" fill-rule="nonzero"/></g></svg>